<?xml version="1.0" encoding="utf-8"?>
<!-- Svg Vector Icons : http://www.onlinewebfonts.com/icon -->
<!DOCTYPE svg PUBLIC "-//W3C//DTD SVG 1.1//EN" "http://www.w3.org/Graphics/SVG/1.1/DTD/svg11.dtd">
<svg version="1.1" xmlns="http://www.w3.org/2000/svg" xmlns:xlink="http://www.w3.org/1999/xlink" x="0px" y="0px" viewBox="0 0 256 256" enable-background="new 0 0 256 256" xml:space="preserve">
<metadata> Svg Vector Icons : http://www.onlinewebfonts.com/icon </metadata>
<g><g><path fill="#000000" d="M223.8,80c-11.3,0-20.6,8.4-22,19.3l-34.7,9.9c-7.1-15.1-22.4-25.6-40.2-25.6c-9.1,0-17.6,2.7-24.6,7.4L77,66.6c3.5-5.6,5.6-12.2,5.6-19.3c0-20-16.3-36.3-36.3-36.3S10,27.3,10,47.3s16.3,36.3,36.3,36.3c6.9,0,13.3-1.9,18.8-5.3l25.3,24.4c-4.9,7.2-7.9,15.8-7.9,25.2c0,13.6,6.1,25.7,15.7,33.9l-14,25.3c-2-0.5-4.2-0.7-6.4-0.7c-16.2,0-29.2,13.1-29.2,29.2c0,16.2,13.1,29.2,29.2,29.2c16.2,0,29.2-13.1,29.2-29.2c0-7.9-3.2-15.1-8.3-20.4l14-25.2c4.4,1.5,9.2,2.3,14.1,2.3c24.5,0,44.4-19.9,44.4-44.4c0-0.9,0-1.8-0.1-2.6l34.7-9.9c4,5.4,10.5,8.9,17.8,8.9c12.3,0,22.2-9.9,22.2-22.2C246,89.9,236.1,80,223.8,80z M46.3,66.9c-10.8,0-19.6-8.8-19.6-19.6s8.8-19.6,19.6-19.6c10.8,0,19.6,8.8,19.6,19.6S57.1,66.9,46.3,66.9z M77.9,228.3c-6.9,0-12.5-5.6-12.5-12.5c0-6.9,5.6-12.5,12.5-12.5s12.5,5.6,12.5,12.5C90.4,222.7,84.8,228.3,77.9,228.3z M127,155.7c-15.3,0-27.7-12.4-27.7-27.7c0-15.3,12.4-27.7,27.7-27.7c15.3,0,27.7,12.4,27.7,27.7C154.6,143.3,142.2,155.7,127,155.7z M223.8,107.6c-3,0-5.5-2.5-5.5-5.5c0-3,2.5-5.5,5.5-5.5s5.5,2.5,5.5,5.5C229.3,105.2,226.8,107.6,223.8,107.6z"/></g></g>
</svg>